<?xml version="1.0" standalone="no"?>
<!DOCTYPE svg PUBLIC "-//W3C//DTD SVG 20010904//EN"
 "http://www.w3.org/TR/2001/REC-SVG-20010904/DTD/svg10.dtd">
<svg version="1.0" xmlns="http://www.w3.org/2000/svg"
 width="251.000000pt" height="256.000000pt" viewBox="0 0 251.000000 256.000000"
 preserveAspectRatio="xMidYMid meet">

<g transform="translate(0.000000,256.000000) scale(0.100000,-0.100000)"
fill="#000000" stroke="none">
<path d="M0 1280 l0 -1280 1255 0 1255 0 0 1280 0 1280 -1255 0 -1255 0 0
-1280z m1958 1215 c12 -3 22 -13 22 -23 0 -27 -54 -133 -88 -172 l-30 -35 -37
35 c-20 19 -46 47 -57 63 l-20 27 25 30 c14 16 30 45 36 63 l12 34 57 -9 c31
-4 67 -10 80 -13z m419 -136 c77 -202 98 -411 54 -515 -42 -97 -119 -150 -235
-161 -92 -8 -158 10 -271 76 -110 65 -145 77 -175 61 -26 -14 -25 -42 5 -137
54 -173 54 -232 -2 -285 -38 -36 -124 -74 -210 -94 -40 -9 -73 -17 -73 -19 0
-1 16 -29 35 -61 32 -52 66 -144 79 -215 4 -19 19 -32 58 -50 28 -13 70 -39
91 -57 22 -18 59 -44 83 -58 133 -78 199 -35 224 145 15 112 53 210 102 266
46 52 149 106 241 126 72 16 73 15 82 -100 3 -47 9 -96 12 -107 4 -20 0 -22
-54 -26 -67 -5 -114 -31 -139 -79 -8 -17 -26 -85 -39 -152 -35 -183 -61 -233
-150 -280 -33 -18 -57 -22 -135 -22 -89 0 -99 2 -157 34 -34 18 -79 48 -100
66 -47 40 -113 85 -124 85 -5 0 -9 -6 -9 -14 0 -7 -18 -50 -41 -95 -64 -128
-80 -138 -521 -322 -134 -56 -263 -110 -287 -121 -25 -11 -61 -26 -80 -33 -20
-7 -112 -47 -204 -89 -258 -116 -363 -142 -388 -95 -24 45 -5 121 111 444 234
653 339 903 421 998 48 55 127 99 213 117 62 13 75 7 76 -32 0 -10 0 -21 0
-25 1 -3 -29 -14 -65 -23 -77 -20 -114 -51 -146 -124 -129 -299 209 -746 565
-746 95 0 164 21 203 62 26 28 63 87 63 102 0 2 -30 -7 -67 -20 -56 -19 -87
-23 -173 -23 -107 1 -195 16 -195 34 0 6 9 34 20 63 20 52 20 52 55 45 77 -17
136 -7 238 41 54 25 106 46 116 46 25 0 14 43 -34 145 -51 105 -63 120 -88
106 -25 -14 -83 -92 -113 -154 l-23 -47 -63 0 c-47 0 -63 4 -63 14 0 22 48
163 71 209 12 23 36 62 53 86 l31 43 -30 24 c-17 14 -61 40 -100 60 -70 35
-83 49 -84 92 -1 20 3 22 22 17 49 -15 151 -67 207 -106 55 -38 62 -41 88 -30
16 7 69 20 118 30 76 15 89 21 92 39 2 11 -11 71 -29 133 -24 86 -30 123 -26
161 9 74 45 128 109 163 48 27 62 30 143 30 80 0 97 -4 155 -31 36 -17 87 -45
114 -62 55 -35 92 -40 136 -17 85 44 78 146 -27 378 -19 43 -33 80 -31 83 10
10 214 92 223 90 6 -1 24 -40 42 -87z m-1917 11 c0 -51 -16 -158 -25 -168 -2
-2 -35 6 -73 19 l-70 22 5 81 c3 45 7 83 10 85 5 6 80 18 121 20 l32 1 0 -60z
m1159 -67 c32 -118 39 -164 28 -168 -53 -18 -141 -35 -147 -28 -13 14 -43 194
-34 203 10 9 85 27 121 29 18 1 24 -7 32 -36z m-1395 -223 l32 -10 -8 -77 c-5
-42 -10 -78 -11 -80 -14 -14 -204 78 -222 108 -4 5 17 36 45 68 l52 60 40 -29
c22 -16 54 -34 72 -40z m324 -272 c39 -27 72 -51 72 -53 0 -5 -52 -138 -56
-143 -2 -3 -204 95 -212 103 -9 8 102 154 112 148 6 -4 44 -28 84 -55z m1547
-238 c14 -40 24 -74 22 -76 -9 -9 -133 -41 -138 -36 -9 9 -39 115 -39 136 0
10 21 21 63 34 34 10 63 18 65 17 1 -1 13 -35 27 -75z m370 -952 c6 -6 -11
-148 -19 -155 -1 -2 -44 0 -94 3 l-92 7 0 80 0 79 100 -4 c54 -2 102 -7 105
-10z m-35 -363 l75 -75 -57 -57 -57 -57 -79 75 -78 74 49 58 c27 31 54 57 61
57 6 0 45 -34 86 -75z"/>
</g>
</svg>
